<svg width="32" height="32" viewBox="0 0 32 32" fill="none" xmlns="http://www.w3.org/2000/svg">
  <!-- Background circle with glass effect -->
  <circle cx="16" cy="16" r="15" fill="url(#glassGradient)" stroke="url(#borderGradient)" stroke-width="2"/>
  
  <!-- Weather icon - Stylized cloud with sun -->
  <g transform="translate(8, 8)">
    <!-- Sun rays -->
    <g stroke="#FCD34D" stroke-width="1.2" stroke-linecap="round">
      <line x1="8" y1="2" x2="8" y2="1"/>
      <line x1="13.07" y1="3.93" x2="13.78" y2="3.22"/>
      <line x1="15" y1="8" x2="16" y2="8"/>
      <line x1="13.07" y1="12.07" x2="13.78" y2="12.78"/>
      <line x1="3.93" y1="3.93" x2="3.22" y2="3.22"/>
      <line x1="2" y1="8" x2="1" y2="8"/>
      <line x1="3.93" y1="12.07" x2="3.22" y2="12.78"/>
    </g>
    
    <!-- Sun -->
    <circle cx="8" cy="6" r="2.5" fill="#FCD34D" opacity="0.9"/>
    
    <!-- Cloud with glass effect -->
    <path d="M4 10c-1.1 0-2 .9-2 2s.9 2 2 2h8c1.66 0 3-1.34 3-3s-1.34-3-3-3c-.35 0-.69.06-1 .17C10.42 7.5 9.44 7 8.33 7 6.5 7 5 8.5 5 10.33c-.37-.21-.8-.33-1.27-.33z" 
          fill="url(#cloudGradient)" 
          stroke="rgba(255,255,255,0.3)" 
          stroke-width="0.5"/>
  </g>
  
  <!-- Glass shine effect -->
  <ellipse cx="12" cy="10" rx="3" ry="8" fill="url(#shineGradient)" opacity="0.3"/>
  
  <!-- Definitions -->
  <defs>
    <!-- Glass background gradient -->
    <radialGradient id="glassGradient" cx="0.3" cy="0.3">
      <stop offset="0%" stop-color="rgba(96, 165, 250, 0.3)"/>
      <stop offset="100%" stop-color="rgba(30, 41, 59, 0.8)"/>
    </radialGradient>
    
    <!-- Border gradient -->
    <linearGradient id="borderGradient" x1="0%" y1="0%" x2="100%" y2="100%">
      <stop offset="0%" stop-color="rgba(255, 255, 255, 0.4)"/>
      <stop offset="100%" stop-color="rgba(255, 255, 255, 0.1)"/>
    </linearGradient>
    
    <!-- Cloud gradient -->
    <linearGradient id="cloudGradient" x1="0%" y1="0%" x2="100%" y2="100%">
      <stop offset="0%" stop-color="rgba(255, 255, 255, 0.9)"/>
      <stop offset="100%" stop-color="rgba(255, 255, 255, 0.6)"/>
    </linearGradient>
    
    <!-- Shine gradient -->
    <linearGradient id="shineGradient" x1="0%" y1="0%" x2="100%" y2="100%">
      <stop offset="0%" stop-color="rgba(255, 255, 255, 0.6)"/>
      <stop offset="100%" stop-color="rgba(255, 255, 255, 0)"/>
    </linearGradient>
  </defs>
</svg>