<svg width="32" height="32" viewBox="0 0 32 32" xmlns="http://www.w3.org/2000/svg">
  <!-- Background circle -->
  <circle cx="16" cy="16" r="15" fill="url(#bg)" stroke="url(#border)" stroke-width="1"/>
  
  <!-- Weather elements -->
  <g>
    <!-- Sun -->
    <circle cx="14" cy="12" r="4" fill="#FCD34D"/>
    
    <!-- Sun rays -->
    <g stroke="#FCD34D" stroke-width="1" stroke-linecap="round">
      <line x1="14" y1="5" x2="14" y2="7"/>
      <line x1="20" y1="8" x2="18.5" y2="9.5"/>
      <line x1="23" y1="12" x2="21" y2="12"/>
      <line x1="20" y1="16" x2="18.5" y2="14.5"/>
      <line x1="8" y1="8" x2="9.5" y2="9.5"/>
      <line x1="5" y1="12" x2="7" y2="12"/>
      <line x1="8" y1="16" x2="9.5" y2="14.5"/>
    </g>
    
    <!-- Cloud -->
    <path d="M8 18c-1.5 0-2.5 1-2.5 2.5s1 2.5 2.5 2.5h12c2 0 3.5-1.5 3.5-3.5s-1.5-3.5-3.5-3.5c-.5 0-1 .1-1.4.3-1-1.2-2.5-2-4.1-2-2.8 0-5 2.2-5 5 -.5-.3-1.1-.5-1.7-.5z" 
          fill="rgba(255,255,255,0.9)" 
          stroke="rgba(255,255,255,0.3)" 
          stroke-width="0.5"/>
  </g>
  
  <!-- Glass shine -->
  <ellipse cx="11" cy="10" rx="2" ry="6" fill="url(#shine)" opacity="0.4"/>
  
  <defs>
    <radialGradient id="bg" cx="0.3" cy="0.3">
      <stop offset="0%" stop-color="#60A5FA"/>
      <stop offset="100%" stop-color="#1E293B"/>
    </radialGradient>
    
    <linearGradient id="border" x1="0%" y1="0%" x2="100%" y2="100%">
      <stop offset="0%" stop-color="rgba(255,255,255,0.4)"/>
      <stop offset="100%" stop-color="rgba(255,255,255,0.1)"/>
    </linearGradient>
    
    <linearGradient id="shine" x1="0%" y1="0%" x2="100%" y2="100%">
      <stop offset="0%" stop-color="rgba(255,255,255,0.6)"/>
      <stop offset="100%" stop-color="rgba(255,255,255,0)"/>
    </linearGradient>
  </defs>
</svg>